<svg width="341" height="152" viewBox="0 0 341 152" fill="none" xmlns="http://www.w3.org/2000/svg">
<path d="M74.7414 151H91.857V110.286H106.833V95.2857H91.857V43.8571H74.7414V95.2857H28.5292L79.0203 1H59.7652L2 110.286H74.7414V151Z" stroke="#F6BB32" stroke-width="2"/>
<path d="M203.117 113.714C203.117 125.929 193.061 136 181.08 136H163.323C151.128 136 141.073 125.929 141.073 113.714V38.2857C141.073 26.2857 151.128 16 163.323 16H181.08C193.061 16 203.117 26.2857 203.117 38.2857V113.714ZM220.232 40.2143C220.232 18.5714 202.689 1 181.08 1H163.323C141.715 1 123.957 18.5714 123.957 40.2143V111.786C123.957 133.429 141.715 151 163.323 151H181.08C202.689 151 220.232 133.429 220.232 111.786V40.2143Z" stroke="#F6BB32" stroke-width="2"/>
<path d="M307.908 151H325.024V110.286H340V95.2857H325.024V43.8571H307.908V95.2857H261.696L312.187 1H292.932L235.167 110.286H307.908V151Z" stroke="#F6BB32" stroke-width="2"/>
</svg>
