<svg width="90" height="90" viewBox="0 0 90 90" fill="none" xmlns="http://www.w3.org/2000/svg">
<rect x="0.5" y="0.5" width="89" height="89" rx="0.5" stroke="#4B869F"/>
<path d="M71.7861 44.7472C71.4252 44.3308 66.3899 37.9726 65.5047 36.897C64.6199 35.8213 64.1816 36.0121 63.6402 36.0901C63.0904 36.1682 56.723 37.2525 55.9844 37.374C55.2452 37.5042 54.7812 37.799 55.2367 38.4409C55.6405 39.0134 59.825 45.0075 60.7532 46.3259L44.1089 50.3508L30.8592 28.0143C30.3349 27.225 30.2234 26.9475 29.0203 27.0081C27.8174 27.0601 18.6318 27.8321 17.9786 27.8929C17.3257 27.945 16.6038 28.24 17.2569 29.8012C17.91 31.3628 28.3414 54.0549 28.6336 54.7139C28.9257 55.3732 29.6819 56.449 31.4519 56.0152C33.265 55.5728 39.5548 53.9158 42.992 53.0051C44.8049 56.3272 48.5087 63.0586 49.1958 64.0216C50.1068 65.314 50.7426 65.0974 52.1432 64.6636C53.2431 64.3251 69.294 58.4957 70.0159 58.2011C70.7376 57.8973 71.1844 57.6891 70.6947 56.9518C70.3338 56.4141 66.0978 50.6887 63.8809 47.6876C65.4019 47.28 70.8065 45.8314 71.3822 45.6665C72.0612 45.4932 72.1558 45.1635 71.7861 44.7472ZM41.5229 50.9927C41.3251 51.036 32.002 53.2914 31.5037 53.4042C31.0052 53.5171 31.0052 53.465 30.9451 53.2914C30.885 53.1179 19.8606 30.1569 19.7058 29.8706C19.5512 29.5842 19.5597 29.3587 19.7058 29.3587C19.8521 29.3587 28.5135 28.5782 28.8142 28.5607C29.1235 28.5434 29.0891 28.6128 29.2009 28.8035C29.2009 28.8035 41.4194 50.0903 41.6258 50.4636C41.8492 50.8366 41.7204 50.9492 41.5229 50.9927ZM67.8164 55.972C67.9624 56.206 68.1171 56.362 67.6445 56.5271C67.1803 56.7006 51.8596 61.914 51.5675 62.0437C51.2667 62.1739 51.0347 62.2173 50.6568 61.6536C50.2787 61.0897 45.2948 52.3894 45.2948 52.3894L61.518 48.1302C61.9218 48.0001 62.0507 47.9132 62.3084 48.3209C62.5576 48.7374 67.6702 55.7377 67.8164 55.972ZM68.8561 44.3396C68.4951 44.4176 62.5317 45.9096 62.5317 45.9096L57.6597 39.1608C57.5225 38.9614 57.4105 38.7704 57.7543 38.727C58.0979 38.6838 63.6315 37.6689 63.8809 37.6168C64.1297 37.5559 64.3446 37.4867 64.6541 37.9117C64.9636 38.3366 69.1739 43.7234 69.3372 43.9318C69.4919 44.1313 69.217 44.2527 68.8561 44.3396Z" fill="#F35045"/>
</svg>
