<svg width="90" height="90" viewBox="0 0 90 90" fill="none" xmlns="http://www.w3.org/2000/svg">
<rect x="0.5" y="0.5" width="89" height="89" rx="0.5" stroke="#4B869F"/>
<path d="M26.1982 44.4995C26.1982 52.1396 30.638 58.7422 37.0762 61.871L27.8692 36.6442C26.7983 39.0447 26.1982 41.7012 26.1982 44.4995ZM58.5293 43.5255C58.5293 41.14 57.6725 39.488 56.9376 38.2022C55.9592 36.6122 55.0421 35.2658 55.0421 33.6758C55.0421 31.9015 56.3878 30.2499 58.2832 30.2499C58.3688 30.2499 58.45 30.2605 58.5334 30.2653C55.0994 27.1192 50.5244 25.1983 45.4994 25.1983C38.7564 25.1983 32.824 28.6581 29.3728 33.8984C29.8256 33.912 30.2524 33.9215 30.6149 33.9215C32.6338 33.9215 35.7588 33.6766 35.7588 33.6766C36.7993 33.6152 36.922 35.1435 35.8826 35.2665C35.8826 35.2665 34.837 35.3895 33.6735 35.4505L40.7022 56.3578L44.9261 43.6893L41.919 35.4498C40.8796 35.3888 39.895 35.2658 39.895 35.2658C38.8549 35.2048 38.9768 33.6145 40.0169 33.6758C40.0169 33.6758 43.2044 33.9208 45.101 33.9208C47.1195 33.9208 50.2449 33.6758 50.2449 33.6758C51.2861 33.6145 51.4084 35.1427 50.3687 35.2658C50.3687 35.2658 49.3209 35.3888 48.1596 35.4498L55.1347 56.1988L57.0599 49.7652C57.8943 47.0954 58.5293 45.1779 58.5293 43.5255ZM45.8381 46.1879L40.047 63.0162C41.7761 63.5245 43.6047 63.8025 45.4994 63.8025C47.7471 63.8025 49.9026 63.414 51.909 62.7084C51.8572 62.6258 51.8102 62.538 51.7716 62.4425L45.8381 46.1879ZM62.4356 35.239C62.5186 35.8538 62.5656 36.5138 62.5656 37.2237C62.5656 39.1824 62.1998 41.3843 61.098 44.1374L55.2023 61.1838C60.9404 57.8376 64.8 51.6207 64.8 44.4999C64.8004 41.1441 63.9432 37.9884 62.4356 35.239ZM45.4994 22.0001C33.0936 22.0001 23 32.0932 23 44.4995C23 56.9073 33.0936 67.0001 45.4994 67.0001C57.905 67.0001 68 56.9073 68 44.4995C67.9996 32.0932 57.905 22.0001 45.4994 22.0001ZM45.4994 65.9687C33.6625 65.9687 24.0317 56.3376 24.0317 44.4995C24.0317 32.6621 33.6621 23.0317 45.4994 23.0317C57.3361 23.0317 66.9661 32.6621 66.9661 44.4995C66.9661 56.3376 57.3361 65.9687 45.4994 65.9687Z" fill="#027498"/>
</svg>
