<svg width="90" height="90" viewBox="0 0 90 90" fill="none" xmlns="http://www.w3.org/2000/svg">
<rect x="0.5" y="0.5" width="89" height="89" rx="0.5" stroke="#4B869F"/>
<path d="M66.6371 47.4196C64.7881 47.4291 63.1812 47.866 61.8355 48.5119C61.3418 47.5526 60.8481 46.6977 60.761 46.0708C60.6642 45.3393 60.548 44.8929 60.6642 44.019C60.7804 43.1451 61.3031 41.9008 61.2934 41.8058C61.2837 41.7108 61.1773 41.2644 60.1124 41.2549C59.0475 41.2454 58.1279 41.4544 58.0214 41.7298C57.9149 42.0053 57.7116 42.6322 57.5761 43.2781C57.3921 44.228 55.4463 47.6191 54.333 49.3953C53.9749 48.7019 53.6651 48.094 53.5973 47.6096C53.5005 46.8781 53.3843 46.4317 53.5005 45.5578C53.6167 44.6839 54.1394 43.4396 54.1297 43.3446C54.1201 43.2496 54.0136 42.8032 52.9487 42.7937C51.8838 42.7842 50.9642 42.9932 50.8577 43.2686C50.7512 43.5441 50.635 44.19 50.4124 44.8169C50.1897 45.4438 47.605 51.1051 46.9273 52.5679C46.5788 53.3183 46.2787 53.9167 46.0658 54.3252C46.0658 54.3252 46.0561 54.3537 46.027 54.4012C45.8431 54.7526 45.7366 54.9426 45.7366 54.9426C45.7366 54.9426 45.7366 54.9426 45.7366 54.9521C45.5914 55.2086 45.4365 55.446 45.3591 55.446C45.301 55.446 45.1945 54.7621 45.3784 53.8312C45.7657 51.865 46.6853 48.8064 46.6756 48.7019C46.6756 48.6449 46.8499 48.113 46.0754 47.8375C45.3203 47.5621 45.0493 48.018 44.9815 48.018C44.9138 48.018 44.8654 48.1795 44.8654 48.1795C44.8654 48.1795 45.7076 44.7409 43.2584 44.7409C41.7288 44.7409 39.6184 46.3842 38.5729 47.866C37.9146 48.2175 36.5109 48.9679 35.0104 49.7753C34.4393 50.0887 33.8488 50.4022 33.297 50.6966C33.2582 50.6587 33.2195 50.6112 33.1808 50.5732C30.2185 47.4671 24.7393 45.2729 24.9716 41.1029C25.0587 39.5831 25.5912 35.5936 35.4945 30.7493C43.6456 26.8073 50.1316 27.8996 51.2546 30.3218C52.8616 33.7794 47.7792 40.2005 39.3571 41.1314C36.1431 41.4829 34.4587 40.267 34.0327 39.8111C33.5874 39.3361 33.5196 39.3076 33.3551 39.4026C33.084 39.5451 33.2582 39.9725 33.3551 40.2195C33.6068 40.8654 34.6426 42.0053 36.3948 42.5657C37.9437 43.0596 41.7095 43.3351 46.269 41.6063C51.3708 39.6686 55.3592 34.2828 54.1878 29.7709C53.0165 25.1925 45.2719 23.6822 37.9437 26.2373C33.5874 27.7571 28.8632 30.1508 25.4653 33.2664C21.4285 36.9709 20.7896 40.191 21.0509 41.5398C21.99 46.3272 28.718 49.4428 31.4092 51.751C31.2737 51.827 31.1479 51.8935 31.0414 51.9505C29.6958 52.6059 24.565 55.2371 23.2872 58.0202C21.8351 61.1738 23.5195 63.4345 24.6328 63.7384C28.0888 64.6788 31.6416 62.988 33.5487 60.1954C35.4558 57.4028 35.2234 53.7742 34.3425 52.112C34.3328 52.093 34.3231 52.074 34.3038 52.055C34.6523 51.8555 35.0104 51.6465 35.359 51.447C36.0463 51.0481 36.7239 50.6777 37.3048 50.3737C36.9756 51.2571 36.7336 52.3114 36.6174 53.8312C36.4722 55.617 37.2176 57.9347 38.1954 58.8466C38.631 59.2455 39.1441 59.255 39.4732 59.255C40.6155 59.255 41.1286 58.3242 41.6998 57.2223C42.3968 55.8735 43.026 54.3062 43.026 54.3062C43.026 54.3062 42.2419 58.5426 44.3716 58.5426C45.1461 58.5426 45.9302 57.5548 46.2787 57.0513V57.0608C46.2787 57.0608 46.2981 57.0323 46.3368 56.9658C46.4143 56.8423 46.4627 56.7664 46.4627 56.7664V56.7474C46.7724 56.2154 47.4695 55.0091 48.5053 53.0048C49.8412 50.4212 51.1287 47.1916 51.1287 47.1916C51.1287 47.1916 51.2449 47.98 51.6418 49.2908C51.8741 50.0602 52.3582 50.9056 52.7454 51.7225C52.4356 52.15 52.242 52.3874 52.242 52.3874C52.242 52.3874 52.242 52.3874 52.2517 52.3969C52 52.7199 51.7289 53.0713 51.4288 53.4133C50.3736 54.6481 49.1152 56.0634 48.9409 56.4719C48.7376 56.9563 48.786 57.3078 49.1732 57.5927C49.454 57.8017 49.9574 57.8302 50.4705 57.8017C51.4192 57.7352 52.0871 57.5073 52.4163 57.3648C52.9293 57.1843 53.5295 56.9088 54.091 56.5004C55.1269 55.75 55.7561 54.6766 55.698 53.2613C55.669 52.4824 55.4076 51.7035 55.0881 50.9721C55.1849 50.8391 55.2721 50.7061 55.3689 50.5732C57.0049 48.227 58.2731 45.6528 58.2731 45.6528C58.2731 45.6528 58.3892 46.4412 58.7861 47.752C58.9798 48.4169 59.3767 49.1389 59.7252 49.8418C58.1859 51.0671 57.2372 52.4919 56.8984 53.4228C56.2885 55.1516 56.7629 55.9305 57.6632 56.1109C58.0698 56.1964 58.6506 56.0065 59.0766 55.826C59.6187 55.655 60.2576 55.3605 60.8675 54.9236C61.9033 54.1732 62.9004 53.1283 62.8423 51.713C62.8133 51.0671 62.639 50.4307 62.397 49.8133C63.7039 49.2813 65.3883 48.9869 67.5375 49.2338C72.1454 49.7658 73.0554 52.5869 72.8812 53.7742C72.7069 54.9616 71.7389 55.6075 71.4194 55.807C71.0999 56.0065 70.9934 56.0729 71.0225 56.2154C71.0612 56.4244 71.2161 56.4149 71.4872 56.3769C71.8647 56.3104 73.9073 55.4175 73.9944 53.2328C74.1397 50.4402 71.4291 47.3911 66.6371 47.4196ZM31.0898 59.179C29.5602 60.8128 27.4305 61.4302 26.5108 60.9078C25.5234 60.3474 25.9106 57.9347 27.7887 56.2059C28.931 55.1516 30.4025 54.1732 31.3802 53.5748C31.6029 53.4418 31.932 53.2518 32.3289 53.0143C32.3967 52.9763 32.4354 52.9573 32.4354 52.9573C32.5128 52.9099 32.5903 52.8624 32.6677 52.8149C33.3551 55.2845 32.6968 57.4598 31.0898 59.179ZM42.2225 51.751C41.6901 53.0238 40.5768 56.2819 39.8992 56.1014C39.3183 55.9495 38.9602 53.4798 39.783 51.0386C40.1993 49.8133 41.0802 48.3505 41.5933 47.7805C42.4258 46.8686 43.3455 46.5647 43.5681 46.9351C43.8489 47.4196 42.5517 50.9531 42.2225 51.751ZM51.4095 56.0634C51.1868 56.1774 50.9739 56.2534 50.877 56.1964C50.8093 56.1584 50.9738 56.0065 50.9738 56.0065C50.9738 56.0065 52.1258 54.7906 52.5808 54.2397C52.8422 53.9167 53.152 53.5368 53.4811 53.1093V53.2328C53.4811 54.6861 52.0484 55.6645 51.4095 56.0634ZM58.4957 54.4772C58.3312 54.3632 58.3602 53.9832 58.912 52.7959C59.125 52.3304 59.6284 51.5515 60.4899 50.8011C60.5867 51.1051 60.6545 51.3996 60.6448 51.675C60.6351 53.5083 59.2992 54.1922 58.4957 54.4772Z" fill="#CD6799"/>
</svg>
