<svg width="90" height="90" viewBox="0 0 90 90" fill="none" xmlns="http://www.w3.org/2000/svg">
<rect x="0.5" y="0.5" width="89" height="89" rx="0.5" stroke="#4B869F"/>
<path d="M45 21.0001L66 32.9981V57.0021L45 69.0001L24 57.0021V32.9981L45 21.0001Z" fill="white"/>
<path d="M62.2518 56.1696L45.6974 65.6384V58.2747L56.0152 52.5358L62.2518 56.1696ZM63.385 55.1371V35.3512L57.3306 38.881V51.6074L63.385 55.1371ZM27.685 56.1696L44.2393 65.6304V58.2667L33.9216 52.5358L27.685 56.1696ZM26.5518 55.1371V35.3512L32.6061 38.881V51.6074L26.5518 55.1371ZM27.257 34.0706L44.2393 24.3698V31.4933L33.3589 37.5363L33.2718 37.5844L27.257 34.0706ZM62.6718 34.0706L45.6974 24.3698V31.4933L56.5699 37.5443L56.657 37.5924L62.6718 34.0706Z" fill="#8ED6FB"/>
<path d="M44.2395 56.5938L34.0645 50.935V39.7374L44.2395 45.6684V56.5938ZM45.6977 56.5938L55.8728 50.943V39.7374L45.6977 45.6684V56.5938ZM34.746 38.4408L44.9686 32.7659L55.1833 38.4408L44.9686 44.3957L34.746 38.4408Z" fill="#1C78C0"/>
</svg>
