<svg width="90" height="90" viewBox="0 0 90 90" fill="none" xmlns="http://www.w3.org/2000/svg">
<rect x="0.5" y="0.5" width="89" height="89" rx="0.5" stroke="#4B869F"/>
<path d="M44.5 25C33.1735 25 24 34.0863 24 45.305C24 54.8475 30.6106 62.7673 39.5294 65C39.4265 64.746 39.3759 64.39 39.3759 64.0357V60.583H36.8129C35.4294 60.583 34.1471 59.9747 33.5835 58.8567C32.9171 57.6384 32.8141 55.7599 31.1235 54.5917C30.6106 54.1856 31.0206 53.7795 31.5841 53.8297C32.6606 54.1338 33.5312 54.8458 34.3512 55.9103C35.1712 56.9765 35.5306 57.2305 37.0677 57.2305C37.7847 57.2305 38.9118 57.1804 39.9377 57.0266C40.5012 55.6044 41.4747 54.336 42.6541 53.7277C35.7871 52.9155 32.5071 49.5647 32.5071 44.9957C32.5071 43.0153 33.3777 41.1369 34.8135 39.5125C34.3529 37.9382 33.7371 34.6894 35.0194 33.421C38.0953 33.421 39.9394 35.4013 40.4 35.9077C41.9371 35.3996 43.6294 35.0955 45.3706 35.0955C47.1641 35.0955 48.8041 35.3996 50.3412 35.9077C50.8018 35.3996 52.6477 33.421 55.7218 33.421C56.9518 34.6393 56.3883 37.9382 55.8753 39.5125C57.3112 41.0868 58.1312 43.0153 58.1312 44.9957C58.1312 49.5647 54.9018 52.9155 48.0871 53.6257C49.9835 54.59 51.3165 57.3308 51.3165 59.3613V63.9856C51.3165 64.1377 51.2659 64.2898 51.2659 64.4418C59.26 61.7011 65 54.1891 65 45.305C65 34.0863 55.8265 25 44.5 25Z" fill="black"/>
</svg>
