<svg width="90" height="90" viewBox="0 0 90 90" fill="none" xmlns="http://www.w3.org/2000/svg">
<rect x="0.5" y="0.5" width="89" height="89" rx="0.5" stroke="#4B869F"/>
<path d="M52.374 73.4604L52.9918 63.1644L54.698 60.252C54.698 60.252 50.8148 61.8405 44.3138 61.8405C37.8126 61.8405 33.9883 60.2813 33.9883 60.2813L35.9004 63.4584L36.5768 73.4604C36.5768 74.5327 40.113 75.4018 44.4754 75.4018C48.8376 75.4018 52.374 74.5327 52.374 73.4604Z" fill="#D34A47"/>
<path d="M50.4248 25.3796L51.7218 20.2532L58.9039 12.6959L57.0109 11.0836L49.4072 19.134L47.9013 25.2587C46.8102 25.2218 45.6716 25.2021 44.5001 25.2021C36.4919 25.2021 30 26.1148 30 27.2403C30 28.366 36.4919 29.2786 44.5001 29.2786C52.5082 29.2786 59 28.366 59 27.2403C59 26.4115 55.4791 25.698 50.4248 25.3796Z" fill="#D34A47"/>
<path d="M49.6704 28.2504C49.6704 28.2504 49.3895 28.3134 48.5633 28.3169C47.7368 28.3203 47.15 28.3116 46.9162 28.0987C46.8534 28.0415 46.819 27.928 46.8193 27.8511C46.82 27.7048 46.9239 27.6186 47.0562 27.5647L47.1813 27.761C47.1269 27.7797 47.0958 27.802 47.0957 27.8256C47.0952 27.9368 47.9407 28.0128 48.5874 28.0046C49.2342 27.9966 50.0157 27.9434 50.0164 27.8338C50.0164 27.8007 49.9573 27.7695 49.8545 27.7449L49.9791 27.55C50.1467 27.602 50.293 27.7026 50.2926 27.8765C50.291 28.1723 49.9146 28.2173 49.6704 28.2504Z" fill="white"/>
<path d="M58.8895 12.7108C59.0701 12.5023 58.7961 11.9687 58.2774 11.5193C57.7586 11.0702 57.1916 10.875 57.0107 11.0836C56.83 11.2922 57.1042 11.8257 57.623 12.2749C58.1416 12.7242 58.7088 12.9195 58.8895 12.7108Z" fill="#D34A47"/>
<path d="M52.0287 48.3114C51.8585 46.6737 55.6109 44.3018 54.6479 44.2259C52.5748 44.3444 51.543 46.6554 50.5 49.0757C50.1178 49.9628 48.8099 53.7453 47.9521 53.2796C47.0945 52.8142 49.0639 49.7037 49.6159 47.8565C48.979 48.3236 46.6432 50.1383 46.0413 48.4388C45.0735 49.2607 43.0055 49.706 43.2388 47.547C42.724 48.4589 41.5684 49.7322 40.1814 49.2031C38.36 48.5085 41.2369 42.7063 41.9523 42.999C42.6677 43.2916 41.8079 44.6133 41.5827 45.1266C41.0874 46.2562 40.5153 47.6762 40.8975 47.9669C41.5523 48.4649 43.3341 46.0829 43.3737 46.0305C43.707 45.5902 44.6564 42.7098 45.4217 43.0405C46.1869 43.3713 43.513 47.1744 44.5128 47.9292C44.7144 48.0815 45.5394 47.8352 46.0413 47.2923C46.366 46.941 46.2543 46.163 47.3367 43.5817C48.4191 41.0005 49.3839 37.7859 50.1262 38.0308C50.8685 38.2756 50.2567 39.9254 49.9904 40.5405C48.7407 43.4272 46.5797 48.1963 47.5988 47.8352C48.6179 47.4743 49.1486 47.4531 50.1466 46.2853C51.1445 45.1175 51.0985 43.1939 51.7637 43.2348C52.429 43.2758 52.3173 43.8925 52.156 44.3622C52.8107 43.613 55.2593 42.0352 55.8504 43.5979C56.5506 45.4479 52.3472 48.1202 53.3952 47.9839C54.4171 47.8511 56.0725 46.8026 56.7794 45.8493L58.7249 28.358C58.7249 28.358 56.7672 29.9782 44.312 29.9782C31.8568 29.9782 30.1016 28.3917 30.1016 28.3917L31.7579 44.3571C32.6371 41.8583 34.7249 36.804 38.0158 36.9736C39.5128 37.0508 41.5112 39.9333 39.7993 40.031C39.0748 40.0722 39.0012 38.5922 38.1432 38.3748C37.5241 38.2179 36.6621 38.7213 36.105 39.2667C34.9939 40.354 32.6045 44.644 32.9202 46.7828C33.3224 49.5095 36.6829 45.8353 37.2515 44.7444C37.6519 43.976 37.9224 41.6993 38.7982 41.9382C39.6741 42.1771 38.7218 44.5266 38.087 46.6039C37.3738 48.9365 36.9988 51.397 36.105 51.1139C35.211 50.8311 36.6672 47.8199 36.6145 47.2923C35.7742 48.0675 34.2262 50.0302 32.2458 49.0587L33.2745 58.9731C33.2745 58.9731 36.0085 61.1333 44.2445 61.1333C52.4805 61.1333 55.3157 59.0068 55.3157 59.0068L56.5931 47.5236C55.548 48.5413 52.2405 50.3484 52.0287 48.3114Z" fill="#D34A47"/>
</svg>
