<svg width="90" height="90" viewBox="0 0 90 90" fill="none" xmlns="http://www.w3.org/2000/svg">
<rect x="0.5" y="0.5" width="89" height="89" rx="0.5" stroke="#4B869F"/>
<path d="M44.7727 30.3379C42.6544 31.8003 40.2535 33.458 38.9671 36.2003C36.7327 40.9845 43.5393 46.2033 43.8301 46.4231C43.8978 46.4743 43.9786 46.4997 44.0593 46.4997C44.145 46.4997 44.2308 46.4709 44.3006 46.4137C44.4357 46.3027 44.4741 46.1143 44.3929 45.9609C44.3682 45.9143 41.9251 41.2561 42.0159 37.9142C42.048 36.7503 43.7075 35.43 45.4643 34.0321C47.0734 32.7517 48.8973 31.3005 49.9645 29.6029C52.3072 25.8661 49.7034 22.1917 49.6768 22.1551C49.5734 22.0126 49.3825 21.9608 49.2192 22.0312C49.0561 22.1017 48.9658 22.2749 49.0031 22.4459C49.0083 22.4701 49.5147 24.9 48.1057 27.4033C47.5251 28.4377 46.2497 29.3184 44.7727 30.3379Z" fill="#EF6F23"/>
<path d="M53.6974 31.9858C53.8468 31.8753 53.8907 31.6738 53.8002 31.5129C53.7097 31.3521 53.5126 31.2812 53.3377 31.3464C52.9778 31.4806 44.5254 34.6786 44.5254 38.5428C44.5254 41.2064 45.6846 42.6136 46.531 43.6413C46.863 44.0442 47.1497 44.3922 47.2441 44.6894C47.51 45.5457 46.88 47.0934 46.6152 47.6175C46.5388 47.7683 46.5762 47.9508 46.7061 48.0609C46.7763 48.1203 46.8639 48.1504 46.9517 48.1504C47.0264 48.1504 47.1014 48.1286 47.1662 48.0843C47.3116 47.985 50.7181 45.621 50.107 42.7727C49.8795 41.6902 49.3375 40.8991 48.8592 40.201C48.1183 39.1197 47.5832 38.3385 48.395 36.8957C49.3465 35.2131 53.6539 32.0178 53.6974 31.9858Z" fill="#EF6F23"/>
<path d="M31.6962 48.212C31.5513 48.6376 31.6197 49.0603 31.8939 49.434C32.8102 50.6825 36.0557 51.3702 41.0331 51.3702C41.0334 51.3702 41.0335 51.3702 41.0337 51.3702C41.7081 51.3702 42.4201 51.3572 43.1494 51.3316C51.1074 51.0518 54.059 48.6184 54.1808 48.515C54.3135 48.4023 54.349 48.2145 54.2664 48.0625C54.1839 47.9107 54.006 47.8344 53.836 47.8803C51.0334 48.6314 45.7999 48.898 42.1699 48.898C38.108 48.898 36.0394 48.6109 35.533 48.3989C35.7929 48.0486 37.3957 47.4232 39.3817 47.0397C39.5716 47.0031 39.7021 46.8311 39.6833 46.6421C39.6645 46.4531 39.5027 46.309 39.3093 46.309C38.145 46.3091 32.3065 46.4009 31.6962 48.212Z" fill="#4B829F"/>
<path d="M58.3248 45.7058C56.6834 45.7058 55.1269 46.5132 55.0614 46.5475C54.9096 46.6274 54.8326 46.7982 54.8743 46.9623C54.9161 47.1262 55.0662 47.2414 55.2385 47.2416C55.2733 47.2417 58.7397 47.2695 59.0537 49.2135C59.3317 50.8906 55.7739 53.608 54.3794 54.5136C54.2288 54.6114 54.1704 54.8005 54.2403 54.9639C54.2996 55.103 54.4378 55.1901 54.5866 55.1901C54.6126 55.1901 54.6389 55.1874 54.665 55.1818C54.996 55.1124 62.76 53.4331 61.9392 48.9958C61.4383 46.2765 59.6971 45.7058 58.3248 45.7058Z" fill="#4B829F"/>
<path d="M53.0006 53.9706C53.0277 53.8283 52.9674 53.6837 52.8469 53.6008L50.9853 52.3209C50.8945 52.2585 50.7798 52.2389 50.6732 52.2666C50.6538 52.2716 48.707 52.7739 45.8806 53.0819C44.7588 53.2054 43.5023 53.2706 42.2468 53.2706C39.4211 53.2706 37.5735 52.9447 37.3044 52.7057C37.2688 52.6386 37.2801 52.608 37.2864 52.591C37.3352 52.4575 37.5972 52.2989 37.7662 52.2362C37.9527 52.1685 38.0533 51.9696 37.9952 51.7828C37.9374 51.596 37.7412 51.486 37.5476 51.5317C35.6802 51.974 34.767 52.5927 34.8335 53.3702C34.9515 54.7487 38.2046 55.4563 40.9549 55.6435C41.3503 55.6701 41.7781 55.6837 42.2259 55.6837C42.2262 55.6837 42.2263 55.6837 42.2266 55.6837C46.7999 55.6837 52.6626 54.2752 52.7212 54.2609C52.8643 54.2263 52.9734 54.1128 53.0006 53.9706Z" fill="#4B829F"/>
<path d="M38.9655 56.9296C39.1065 56.8394 39.169 56.6684 39.119 56.5109C39.0691 56.3533 38.9189 56.2499 38.7503 56.2519C38.5 56.2584 36.3014 56.3558 36.1475 57.7298C36.1009 58.1405 36.2207 58.5155 36.5037 58.8447C37.2932 59.763 39.424 60.3087 43.017 60.5134C43.4421 60.5383 43.8738 60.5508 44.3005 60.5508C48.8685 60.5508 51.9449 59.147 52.0737 59.0872C52.1986 59.0292 52.281 58.9088 52.2883 58.7734C52.2957 58.6381 52.2269 58.5096 52.109 58.4389L49.7564 57.0292C49.6747 56.9803 49.577 56.9641 49.4838 56.9828C49.469 56.9859 47.9752 57.29 45.7208 57.5906C45.2942 57.6474 44.76 57.6763 44.1332 57.6763C41.8813 57.6763 39.3765 57.3151 38.8961 57.0787C38.8892 57.0343 38.898 56.9783 38.9655 56.9296Z" fill="#4B829F"/>
<path d="M42.1714 64.7896C52.6345 64.7808 58.2503 62.9544 59.3321 61.8051C59.7151 61.3983 59.7564 61.0134 59.7238 60.762C59.6434 60.1432 59.0693 59.7644 59.0041 59.7233C58.847 59.6241 58.6363 59.6501 58.5138 59.7888C58.3916 59.9276 58.3887 60.1302 58.5114 60.2687C58.5773 60.3521 58.6155 60.4915 58.4225 60.6811C57.9901 61.0776 53.6281 62.281 46.3653 62.6425C45.3704 62.6934 44.327 62.7191 43.264 62.7192C36.7612 62.7192 32.0022 61.8451 31.3775 61.3355C31.6185 60.996 33.3016 60.4533 35.0919 60.1466C35.2936 60.112 35.4299 59.9254 35.3986 59.7268C35.3674 59.5282 35.1808 59.3914 34.977 59.4176C34.9265 59.4242 34.7553 59.4345 34.5567 59.4463C31.603 59.6234 28.1896 60.0181 28.0115 61.5118C27.9573 61.9671 28.0952 62.3802 28.4212 62.7399C29.2189 63.6197 31.5119 64.7894 42.1709 64.7894C42.1712 64.7896 42.1712 64.7896 42.1714 64.7896Z" fill="#4B829F"/>
<path d="M61.3876 62.1289C61.2397 62.0618 61.065 62.0957 60.9545 62.2126C60.9391 62.2288 59.3661 63.8435 54.6362 64.7916C52.8254 65.1478 49.4265 65.3284 44.5337 65.3284C39.6317 65.3284 34.9674 65.1391 34.9208 65.1371C34.726 65.1278 34.5593 65.2668 34.5329 65.4551C34.5063 65.6434 34.6298 65.8206 34.818 65.8645C34.8666 65.8759 39.7548 67 46.4386 67C49.6443 67 52.7637 66.7443 55.7104 66.24C61.2047 65.2946 61.5893 62.6204 61.603 62.5071C61.6221 62.3486 61.5352 62.1961 61.3876 62.1289Z" fill="#4B829F"/>
</svg>
