<svg width="90" height="90" viewBox="0 0 90 90" fill="none" xmlns="http://www.w3.org/2000/svg">
<rect x="0.5" y="0.5" width="89" height="89" rx="0.5" stroke="#4A869F"/>
<path d="M45.4998 25L33.3811 26.3425L24 38.6323L45.5002 64.9992L66.9987 38.6323L57.6176 26.3425L45.4998 25Z" fill="#FDB300"/>
<path d="M24 38.6322L45.5002 65L32.7083 38.6322H24Z" fill="#EA6C00"/>
<path d="M58.2922 38.6322L45.502 65L67.0005 38.6322H58.2922Z" fill="#EA6C00"/>
<path d="M33.3808 26.3425L32.708 38.6323L45.4995 25L33.3808 26.3425Z" fill="#FDD231"/>
<path d="M58.2906 38.6323L57.6178 26.3425L45.5 25L58.2906 38.6323Z" fill="#FDD231"/>
<path d="M58.29 38.6323H66.9983L57.6172 26.3425L58.29 38.6323Z" fill="#FDAD00"/>
<path d="M24 38.6323H32.7083L33.3811 26.3425L24 38.6323Z" fill="#FDAD00"/>
<path d="M45.4995 25L32.708 38.6323H58.2901L45.4995 25Z" fill="#FEEEB7"/>
<path d="M32.708 38.6322L45.4998 65H45.5007L58.291 38.6322H32.708Z" fill="#FDAD00"/>
<path d="M45.4998 25L33.3811 26.3425L24 38.6323L45.5002 64.9992L66.9987 38.6323L57.6176 26.3425L45.4998 25Z" fill="url(#paint0_linear)"/>
<defs>
<linearGradient id="paint0_linear" x1="26.2656" y1="33.7018" x2="61.7681" y2="50.0154" gradientUnits="userSpaceOnUse">
<stop stop-color="white" stop-opacity="0.2"/>
<stop offset="1" stop-color="white" stop-opacity="0"/>
</linearGradient>
</defs>
</svg>
