<svg width="90" height="90" viewBox="0 0 90 90" fill="none" xmlns="http://www.w3.org/2000/svg">
<rect x="0.5" y="0.5" width="89" height="89" rx="0.5" stroke="#4A869F"/>
<path d="M38 66C41.866 66 45 62.866 45 59V52H38C34.134 52 31 55.134 31 59C31 62.866 34.134 66 38 66Z" fill="#0ACF83"/>
<path d="M31 45C31 41.134 34.134 38 38 38H45V52H38C34.134 52 31 48.866 31 45Z" fill="#A259FF"/>
<path d="M31 31C31 27.134 34.134 24 38 24H45V38H38C34.134 38 31 34.866 31 31Z" fill="#F24E1E"/>
<path d="M45 24H52C55.866 24 59 27.134 59 31C59 34.866 55.866 38 52 38H45V24Z" fill="#FF7262"/>
<path d="M59 45C59 48.866 55.866 52 52 52C48.134 52 45 48.866 45 45C45 41.134 48.134 38 52 38C55.866 38 59 41.134 59 45Z" fill="#1ABCFE"/>
</svg>
