<svg width="90" height="90" viewBox="0 0 90 90" fill="none" xmlns="http://www.w3.org/2000/svg">
<rect x="0.5" y="0.5" width="89" height="89" rx="0.5" stroke="#4B869F"/>
<path d="M28.0107 40.702C29.7276 40.702 30.8718 41.0157 31.4439 41.6433C32.0155 42.2709 32.1517 43.3481 31.8526 44.8746C31.5402 46.4642 30.9386 47.5988 30.0467 48.2786C29.1549 48.9585 27.7978 49.298 25.9758 49.298H23.227L24.9144 40.702H28.0107ZM17 58.0001H21.5191L22.591 52.5394H26.4618C28.1698 52.5394 29.5748 52.3621 30.6778 52.0065C31.7809 51.6514 32.7833 51.0558 33.6856 50.2197C34.4429 49.5304 35.0556 48.7703 35.5248 47.939C35.9935 47.1083 36.3266 46.1912 36.5235 45.1883C37.0016 42.7536 36.6408 40.8572 35.442 39.4986C34.2433 38.14 32.3363 37.4607 29.7221 37.4607H21.032L17 58.0001Z" fill="#587EB3"/>
<path d="M39.8426 32.0001H44.326L43.2541 37.4607H47.2483C49.7613 37.4607 51.4949 37.895 52.449 38.7626C53.403 39.6308 53.6888 41.0372 53.3074 42.9815L51.4315 52.5394H46.8769L48.6605 43.4516C48.8635 42.4177 48.789 41.7126 48.4366 41.3366C48.0841 40.9606 47.3341 40.7725 46.187 40.7725H42.6037L40.2941 52.5393H35.8105L39.8426 32.0001Z" fill="#587EB3"/>
<path d="M63.283 40.702C64.9999 40.702 66.1442 41.0157 66.7163 41.6433C67.2881 42.2709 67.4242 43.3481 67.125 44.8746C66.8126 46.4642 66.2111 47.5988 65.3191 48.2786C64.4273 48.9585 63.0701 49.298 61.2482 49.298H58.4995L60.1868 40.702H63.283ZM52.2725 58.0001H56.7916L57.8633 52.5394H61.7341C63.4421 52.5394 64.8471 52.3621 65.9502 52.0065C67.0532 51.6514 68.0557 51.0558 68.9581 50.2197C69.7155 49.5304 70.3281 48.7703 70.7973 47.939C71.2659 47.1083 71.5991 46.1912 71.7958 45.1883C72.2739 42.7536 71.9132 40.8572 70.7144 39.4986C69.5157 38.14 67.6087 37.4607 64.9944 37.4607H56.3045L52.2725 58.0001Z" fill="#587EB3"/>
</svg>
