<svg width="90" height="90" viewBox="0 0 90 90" fill="none" xmlns="http://www.w3.org/2000/svg">
<rect x="0.5" y="0.5" width="89" height="89" rx="0.5" stroke="#4B869F"/>
<path d="M57.8411 55.1179H64.4206V39.2297L57.0079 31.7744L52.3554 36.4536L57.8411 41.9708V55.1179ZM64.4379 58.4352H54.8552H41.488L36.0023 52.918L38.3285 50.5784L42.8595 55.1354H52.1818L42.9984 45.8818L45.342 43.5247L54.5254 52.7609V43.385L50.0118 38.8455L52.3207 36.5234L40.9152 25.0001H29.6659H18L24.5621 31.5998V31.6173H24.5968H38.1723L42.981 36.4536L35.9502 43.5247L31.1415 38.6884V34.9346H24.5621V41.4296L35.9502 52.8831L31.3151 57.5448L38.7278 65.0001H49.9771H71L64.4379 58.4352Z" fill="#FF6525"/>
</svg>
