<svg width="90" height="90" viewBox="0 0 90 90" fill="none" xmlns="http://www.w3.org/2000/svg">
<rect x="0.5" y="0.5" width="89" height="89" rx="0.5" stroke="#4A869F"/>
<path d="M61.3739 25H28.6261C26.6234 25 25 26.6234 25 28.6261V61.3739C25 63.3766 26.6234 65 28.6261 65H61.3739C63.3766 65 65 63.3766 65 61.3739V28.6261C65 26.6234 63.3766 25 61.3739 25Z" fill="#DC395F"/>
<path d="M38.4278 37.6782C39.7546 37.6782 40.8661 36.6429 40.8661 35.2859C40.8661 33.9299 39.7546 32.8947 38.4278 32.8947C37.1009 32.8947 35.9897 33.9299 35.9897 35.2859C35.9897 36.6427 37.1009 37.6782 38.4278 37.6782ZM33.3721 50.4875C33.2288 51.0944 33.1569 51.7498 33.1569 52.2844C33.1569 54.391 34.3043 55.7894 36.7427 55.7894C38.7649 55.7894 40.4043 54.5938 41.5847 52.6633L40.8639 55.5432H44.8795L47.1746 46.3788C47.7483 44.0585 48.8599 42.8541 50.5453 42.8541C51.872 42.8541 52.6966 43.6756 52.6966 45.0316C52.6966 45.4245 52.6607 45.8524 52.5173 46.3167L51.3339 50.5291C51.1546 51.136 51.0832 51.7433 51.0832 52.314C51.0832 54.3138 52.2661 55.7765 54.7403 55.7765C56.8559 55.7765 58.5411 54.4206 59.4734 51.1719L57.8959 50.5656C57.107 52.742 56.4256 53.1355 55.8877 53.1355C55.3498 53.1355 55.0629 52.7788 55.0629 52.0652C55.0629 51.7439 55.135 51.3873 55.2422 50.958L56.3899 46.8541C56.6766 45.8905 56.7844 45.036 56.7844 44.2508C56.7844 41.1808 54.9196 39.5785 52.6607 39.5785C50.5453 39.5785 48.3937 41.4783 47.3182 43.4778L48.1068 39.889H41.9756L41.115 43.05H43.9836L42.2171 50.091C40.83 53.1611 38.2818 53.2109 37.9621 53.1397C37.4369 53.0217 37.1011 52.8232 37.1011 52.1439C37.1011 51.752 37.1728 51.189 37.3521 50.5102L40.0417 39.889H33.2288L32.3682 43.05H35.2007L33.3723 50.4875" fill="white"/>
</svg>
