<svg width="90" height="90" viewBox="0 0 90 90" fill="none" xmlns="http://www.w3.org/2000/svg">
<rect x="0.5" y="0.5" width="89" height="89" rx="0.5" stroke="#4B869F"/>
<path d="M62.5916 24H27.4067C26.5639 24 25.9316 24.7097 26.0059 25.5483L29.2197 61.3868C29.2941 62.2247 30.0224 63.1018 30.8394 63.3283L43.5082 66.8303C44.3241 67.0553 45.6575 67.0568 46.4746 66.8333L59.1591 63.3362C59.9762 63.1103 60.7046 62.2412 60.7789 61.4017L63.994 25.5483C64.0684 24.7097 63.4387 24 62.5916 24ZM56.4896 36.9367C56.4891 36.9421 56.4847 36.9464 56.4793 36.9473C56.4738 36.9483 56.4685 36.9454 56.4661 36.9403L46.5404 40.9881C46.399 41.0457 46.3184 41.1949 46.3478 41.3441C46.3773 41.4933 46.5088 41.6009 46.6616 41.6009H54.3823C54.793 41.6009 55.1842 41.7745 55.4589 42.0784C55.7335 42.3823 55.8655 42.788 55.8219 43.1944L54.6155 54.4558C54.5563 55.0083 54.1832 55.4777 53.6565 55.6621L45.4616 58.5315C45.153 58.6397 44.8166 58.6405 44.5072 58.5338L36.3506 55.7221C35.8207 55.5394 35.4445 55.0687 35.3849 54.5137L34.8381 49.4136C34.8093 49.1459 34.8963 48.8786 35.0771 48.6784C35.258 48.4782 35.5158 48.3638 35.7864 48.3638H38.0562C38.5439 48.3638 38.953 48.7298 39.0046 49.2124L39.3401 52.3472L44.9877 54.3008L50.6612 52.3294L51.3551 45.8278H35.3138C34.8275 45.8278 34.4191 45.4638 34.3658 44.9828L34.0603 42.2272C34.0137 41.8069 34.252 41.4067 34.6447 41.2456L44.9113 37.0334C45.0278 36.9856 45.094 36.8627 45.0696 36.7398C45.0451 36.6169 44.9368 36.5284 44.811 36.5284H34.0017C33.6762 36.5284 33.4033 36.2838 33.3694 35.9619L33.0567 33.0001C33.0379 32.8219 33.096 32.644 33.2165 32.5108C33.337 32.3776 33.5088 32.3015 33.6889 32.3015H56.3064C56.4875 32.3015 56.66 32.3784 56.7806 32.5128C56.9012 32.6472 56.9585 32.8265 56.9381 33.0055L56.4896 36.9367Z" fill="#1C6DB0"/>
</svg>
