<svg width="90" height="90" viewBox="0 0 90 90" fill="none" xmlns="http://www.w3.org/2000/svg">
<path d="M26.6593 24C26.263 24 25.9677 24.3221 26.0028 24.7157L29.3441 62.0869C29.3793 62.4805 29.7204 62.889 30.1025 62.9948L44.2811 66.9204C44.663 67.0262 45.2879 67.0261 45.67 66.9207L59.8917 62.9886C60.2736 62.883 60.6152 62.4744 60.6504 62.081L63.9971 24.7157C64.0326 24.3221 63.737 24 63.3406 24H26.6593ZM56.8815 32.571C56.8499 32.9221 56.7953 33.5315 56.7601 33.9251L56.6721 34.9057C56.6366 35.2991 56.5862 35.8619 56.5595 36.1561C56.533 36.4504 56.5078 36.6911 56.5032 36.6911C56.4987 36.6911 56.1707 36.6911 55.7744 36.6911H45.7206C45.3242 36.6911 44.9967 36.6911 44.9923 36.6911C44.988 36.6911 44.6601 36.6911 44.2638 36.6911H38.9689C38.5725 36.6911 38.2772 37.0132 38.3124 37.4068L38.6212 40.8493C38.6564 41.2428 39.0096 41.565 39.406 41.565H44.264C44.6603 41.565 44.9882 41.565 44.9925 41.565C44.9968 41.565 45.3244 41.565 45.7207 41.565H54.0709C54.4672 41.565 55.0806 41.565 55.4338 41.565C55.7868 41.565 56.0496 41.8523 56.0176 42.2034C55.9855 42.5545 55.9306 43.1641 55.8954 43.5576L54.9023 54.6559C54.8668 55.0496 54.822 55.5524 54.8027 55.7734C54.783 55.9943 54.4545 56.2615 54.0726 56.3671L45.6945 58.6835C45.3126 58.789 44.9952 58.8764 44.9893 58.8777C44.9834 58.879 44.6662 58.7935 44.2841 58.6878L35.8971 56.3672C35.5152 56.2616 35.1739 55.853 35.1387 55.4594L34.5989 49.4172C34.5637 49.0235 34.8593 48.7015 35.2556 48.7015H36.021C36.4174 48.7015 37.0659 48.7015 37.4622 48.7015H38.6037C39 48.7015 39.3529 49.0235 39.3884 49.4172L39.6001 51.7825C39.6353 52.1761 39.977 52.5824 40.3598 52.6854L44.2828 53.7418C44.6653 53.8448 44.9798 53.9292 44.9815 53.9292C44.9833 53.9292 45.2976 53.8447 45.6802 53.7417L49.6104 52.6827C49.9929 52.5796 50.3349 52.1732 50.3703 51.7797L50.7965 47.0408C50.8319 46.6472 50.5366 46.3251 50.1403 46.3251H45.7207C45.3244 46.3251 44.9968 46.3251 44.9925 46.3251C44.9882 46.3251 44.6603 46.3251 44.264 46.3251H35.0419C34.6456 46.3251 34.2926 46.0029 34.2574 45.6094L33.2117 33.925C33.1765 33.5314 33.1219 32.9221 33.0904 32.5708C33.0591 32.2197 33.3576 31.9325 33.7539 31.9325H44.264C44.6603 31.9325 44.9882 31.9325 44.9925 31.9325C44.9968 31.9325 45.3244 31.9325 45.7207 31.9325H56.2181C56.6143 31.9325 56.9129 32.2197 56.8815 32.571Z" fill="#E3533F"/>
<rect x="0.5" y="0.5" width="89" height="89" rx="0.5" stroke="#4B869F"/>
</svg>
