<svg width="90" height="90" viewBox="0 0 90 90" fill="none" xmlns="http://www.w3.org/2000/svg">
<rect x="0.5" y="0.5" width="89" height="89" rx="0.5" stroke="#4B869F"/>
<path d="M74.6395 25.0011C73.6813 25.0316 73.9844 25.3066 71.9139 25.814C69.8231 26.3263 67.2692 26.1692 65.0178 27.1095C58.2968 29.9164 56.9484 39.5099 50.8384 42.9465C46.2713 45.5154 41.6636 45.7203 37.521 47.013C34.7985 47.8631 31.8204 49.6066 29.3538 51.7233C27.4392 53.3669 27.3892 54.8121 25.3888 56.8735C23.249 59.0785 16.8845 56.9108 14 60.2856C14.9292 61.2212 15.3366 61.4832 17.1677 61.2405C16.7886 61.9561 14.5538 62.5591 14.9913 63.6117C15.4516 64.7194 20.8544 65.4702 25.7659 62.5173C28.0532 61.1421 29.8751 59.16 33.4374 58.6868C38.0472 58.075 43.3576 59.0793 48.6942 59.8456C47.903 62.1952 46.3143 63.7577 45.0417 65.6289C44.6476 66.0516 45.8332 66.099 47.1858 65.8435C49.619 65.2444 51.3725 64.762 53.2088 63.6976C55.4648 62.3898 55.8066 59.0368 58.5746 58.3113C60.1168 60.6718 64.3113 61.2294 66.9141 59.3414C64.6302 58.6976 63.999 53.8565 64.77 51.7233C65.5002 49.7041 66.2218 46.474 66.9572 43.8048C67.7468 40.9382 68.0381 37.3251 68.9936 35.8649C70.4313 33.668 72.0198 32.9136 73.3989 31.6747C74.7781 30.4359 76.0404 29.23 75.999 26.3954C75.9857 25.4823 75.5116 24.9734 74.6395 25.0011Z" fill="#002B64"/>
<path d="M15.9831 63.4098C19.4806 63.9087 21.6076 63.4098 24.4163 62.1968C26.806 61.1647 29.114 59.0369 31.9361 58.135C36.0808 56.8107 40.6258 58.1367 45.0563 58.401C46.1351 58.4656 47.2071 58.4663 48.2652 58.3516C49.9157 57.3415 49.8816 53.5629 51.4879 53.2168C51.4407 58.5181 49.2582 61.6944 46.9757 64.7702C51.7862 63.9241 54.6648 61.1533 56.6091 57.4527C57.199 56.3307 57.7027 55.1234 58.1482 53.8582C58.8367 54.3846 58.4464 55.9859 58.7926 56.8536C62.106 55.0156 64.0034 50.8209 65.2598 46.5785C66.7134 41.6686 67.3085 36.697 68.246 35.2443C69.1611 33.8262 70.585 32.9521 71.8849 32.0442C73.362 31.0121 74.6794 29.9364 74.907 27.9697C73.3492 27.8262 72.9889 27.4674 72.7586 26.6856C71.9787 27.1234 71.2615 27.2171 70.4513 27.2411C69.7482 27.2624 68.9759 27.2312 68.0326 27.3277C60.2311 28.1256 59.2398 36.6884 54.2393 41.5426C53.8756 41.8956 53.4822 42.2249 53.0664 42.5339C51.3152 43.8335 49.1668 44.7622 47.1912 45.5142C43.9933 46.731 40.953 46.8175 37.9526 47.8678C35.7501 48.6386 33.5121 49.7569 31.703 50.9899C31.2506 51.2979 30.8245 51.6134 30.4325 51.9327C29.3709 52.7976 28.674 53.7573 28 54.7444C27.3049 55.7617 26.6336 56.8083 25.6103 57.8081C23.9525 59.429 17.7581 58.2809 15.5773 59.7841C15.3342 59.9513 15.1411 60.1521 15.0098 60.3932C16.1996 60.9315 16.9944 60.6012 18.3632 60.752C18.5428 62.0453 15.539 62.8141 15.9831 63.4098Z" fill="#EBEBEB"/>
<path d="M63.2487 54.0913C63.3418 55.5753 64.2068 58.5195 64.9705 59.235C63.4749 59.5972 60.8983 58.9988 60.2373 57.9481C60.5769 56.4312 62.3443 55.0444 63.2487 54.0913Z" fill="#EBEBEB"/>
<path d="M65.4404 30.5404C66.5448 31.4952 68.8621 30.7289 68.448 28.8291C66.732 28.6877 65.738 29.2676 65.4404 30.5404Z" fill="#002B64"/>
<path d="M73.1392 28.3203C72.8454 28.9338 72.2831 29.7249 72.2831 31.2868C72.2807 31.555 72.0786 31.7387 72.0752 31.3253C72.0904 29.7987 72.4962 29.1388 72.9272 28.2715C73.1275 27.9162 73.2482 28.0628 73.1392 28.3203Z" fill="#002B64"/>
<path d="M72.8431 28.0892C72.4966 28.6746 71.6622 29.7425 71.5243 31.2985C71.4988 31.5653 71.2809 31.7304 71.314 31.3181C71.4643 29.7991 72.1311 28.8484 72.6373 28.0219C72.8669 27.6858 72.9748 27.8424 72.8431 28.0892Z" fill="#002B64"/>
<path d="M72.5738 27.783C72.179 28.3371 70.8947 29.6196 70.6261 31.1588C70.5778 31.4221 70.3468 31.5691 70.4147 31.1608C70.6926 29.6594 71.7998 28.4793 72.3738 27.6989C72.631 27.3826 72.7252 27.5478 72.5738 27.783Z" fill="#002B64"/>
<path d="M72.3334 27.4413C71.8645 27.9347 70.3333 29.5701 69.8506 31.0561C69.7651 31.3102 69.5158 31.4235 69.6409 31.0286C70.1278 29.5811 71.4687 28.0219 72.1472 27.3297C72.4468 27.0527 72.5165 27.2295 72.3334 27.4413Z" fill="#002B64"/>
</svg>
