<svg width="90" height="90" viewBox="0 0 90 90" fill="none" xmlns="http://www.w3.org/2000/svg">
<rect x="0.5" y="0.5" width="89" height="89" rx="0.5" stroke="#4B869F"/>
<path d="M61.0938 25H28.9062C26.7489 25 25 26.7489 25 28.9062V61.0938C25 63.2511 26.7489 65 28.9062 65H61.0938C63.2511 65 65 63.2511 65 61.0938V28.9062C65 26.7489 63.2511 25 61.0938 25Z" fill="url(#paint0_linear)"/>
<path d="M57.9246 30.2H49.4746C48.4391 30.2 47.5996 31.0394 47.5996 32.075V45.825C47.5996 46.8605 48.4391 47.7 49.4746 47.7H57.9246C58.9601 47.7 59.7996 46.8605 59.7996 45.825V32.075C59.7996 31.0394 58.9601 30.2 57.9246 30.2Z" fill="white"/>
<path d="M40.5252 30.2H32.0752C31.0397 30.2 30.2002 31.0394 30.2002 32.075V55.825C30.2002 56.8605 31.0397 57.7 32.0752 57.7H40.5252C41.5607 57.7 42.4002 56.8605 42.4002 55.825V32.075C42.4002 31.0394 41.5607 30.2 40.5252 30.2Z" fill="white"/>
<defs>
<linearGradient id="paint0_linear" x1="45" y1="25" x2="45" y2="65" gradientUnits="userSpaceOnUse">
<stop stop-color="#0091E6"/>
<stop offset="1" stop-color="#0079BF"/>
</linearGradient>
</defs>
</svg>
