<svg width="90" height="90" viewBox="0 0 90 90" fill="none" xmlns="http://www.w3.org/2000/svg">
<rect x="0.5" y="0.5" width="89" height="89" rx="0.5" stroke="#4A869F"/>
<path d="M46.98 59.7473C46.8471 59.3487 46.7142 58.8838 46.5813 58.4852C45.5182 55.0312 44.7208 50.3151 44.2557 45.3334C43.5248 36.167 44.2557 26.2699 47.1129 26.0042C48.7076 25.8713 49.9701 28.9268 50.7675 31.4509C51.8306 34.9049 52.628 39.621 53.0931 44.6027C53.824 53.7692 53.0931 63.6662 50.2359 63.9319C48.8405 63.9984 47.7109 61.9392 46.98 59.7473ZM49.7043 30.3881C48.7076 27.5983 47.7109 26.602 47.1129 26.6684C45.3189 26.8013 43.9899 34.5064 44.9202 45.267C45.3189 50.2487 46.1162 54.8319 47.1794 58.2859C48.309 62.0721 49.505 63.3341 50.1695 63.2677C51.9635 63.1349 53.2924 55.4297 52.3622 44.6692C51.9635 39.6874 51.1662 35.1042 50.103 31.6502C49.9701 31.1852 49.8372 30.7202 49.7043 30.3881Z" fill="#FD6D0B"/>
<path d="M37.9436 34.5728C37.1462 32.3809 36.6811 30.056 37.8107 29.259C40.1363 27.5984 47.0468 34.7721 52.2961 42.3444C55.1533 46.4626 57.4789 50.5809 58.8743 53.9685C59.871 56.4261 60.8677 59.6145 59.5387 60.478C57.2131 62.1385 50.3027 54.9648 45.0534 47.3925C42.1297 43.3407 39.8041 39.2225 38.4087 35.8349C38.2094 35.4363 38.0765 35.0378 37.9436 34.5728ZM58.7414 55.4962C58.6085 55.0977 58.4756 54.6991 58.2762 54.2342C56.8809 50.913 54.5552 46.8612 51.7645 42.7429C45.585 33.8422 39.6712 28.794 38.2094 29.7903C37.6778 30.1889 37.6114 31.9159 39.0732 35.5028C40.4686 38.8239 42.7942 42.8758 45.585 46.994C51.7645 55.8947 57.6782 60.9429 59.14 59.9466C59.6052 59.6809 59.7381 58.286 58.7414 55.4962Z" fill="#FD6D0B"/>
<path d="M37.6781 48.9867L25.9835 53.1714L25.7842 60.7436L32.894 58.1531L40.0702 55.5626L37.6781 48.9867Z" fill="#FFBE22"/>
<path d="M35.286 42.3444L28.1098 44.8684L21 47.459L25.9835 53.1714L37.6781 48.9867L35.286 42.3444Z" fill="#F89920"/>
<path d="M69.5719 37.4955C71.1666 41.813 63.193 48.6546 51.8306 52.7729C40.4683 56.8247 29.9697 56.6254 28.375 52.3079C30.6342 58.6845 41.7308 60.5444 53.0931 56.4261C64.5219 52.3079 71.8975 43.8721 69.5719 37.4955Z" fill="#F0670B"/>
<path d="M51.8306 52.7729C63.193 48.6546 71.1666 41.8794 69.5719 37.4955L28.375 52.3079C29.9697 56.6254 40.4683 56.8247 51.8306 52.7729Z" fill="#F89920"/>
<path d="M46.1826 37.0306C57.545 32.9123 68.0435 33.178 69.6382 37.4955C67.379 31.1189 56.2825 29.259 44.9201 33.3773C33.5578 37.4955 26.1157 45.9313 28.3749 52.3079C26.8467 47.924 34.7538 41.0824 46.1826 37.0306Z" fill="#FFD00E"/>
<path d="M46.1836 37.0305C34.8212 41.1488 26.8476 47.924 28.4423 52.3079L69.6392 37.4955C68.0445 33.1115 57.5459 32.9123 46.1836 37.0305Z" fill="#FFBE22"/>
<path d="M47.1798 58.2196C46.316 55.3634 45.5851 51.6437 45.1199 47.5919C50.3692 55.0977 57.1468 62.1386 59.4724 60.5444L59.0737 60.013C57.6119 61.0094 51.6982 55.9612 45.5186 47.0605C45.3193 46.7948 45.1199 46.5291 44.9206 46.2634C44.9206 45.9313 44.8542 45.5992 44.8542 45.2671C43.9904 34.5065 45.3193 26.8014 47.0469 26.6685L46.9805 26.0043C44.1233 26.27 43.3923 35.9678 44.1233 45.1342C41.8641 41.7466 40.07 38.4254 38.9404 35.6357C37.4122 31.9824 37.4786 30.2554 38.0766 29.9233L37.6779 29.3919C36.5483 30.1889 37.0799 32.5138 37.8108 34.7057C37.9437 35.1043 38.1431 35.5692 38.276 35.9678C39.5384 39.0897 41.6647 42.8094 44.1897 46.5955C44.6548 51.1787 45.3857 55.3634 46.3824 58.5517C46.5153 58.9503 46.6482 59.4152 46.7811 59.8138C47.5785 62.0057 48.7081 64.0649 50.037 63.9984L49.9705 63.3342C49.439 63.2678 48.3094 62.0057 47.1798 58.2196Z" fill="#FD6D0B"/>
</svg>
