<svg width="90" height="90" viewBox="0 0 90 90" fill="none" xmlns="http://www.w3.org/2000/svg">
<rect x="0.5" y="0.5" width="89" height="89" rx="0.5" stroke="#4A869F"/>
<path d="M27 27H64V63H27V27Z" fill="url(#paint0_radial)"/>
<path d="M26.7083 26.7094H64.2917V63.2906H26.7083V26.7094ZM25 65H66V25H25V65ZM52.6408 41.4102C51.2912 41.4102 50.83 42.094 50.83 42.6581C50.83 43.2734 51.1375 43.7008 52.9484 44.641C55.6304 45.9401 56.4675 47.188 56.4675 49.0171C56.4675 51.7521 54.3834 53.2222 51.5646 53.2222C50.0783 53.2222 48.7971 52.9144 48.0625 52.4872C47.9429 52.4359 47.9258 52.3504 47.9258 52.2136V49.7008C47.9258 49.5299 48.0113 49.4785 48.1309 49.5641C49.2071 50.265 50.4371 50.5726 51.5646 50.5726C52.9142 50.5726 53.4779 50.0085 53.4779 49.2393C53.4779 48.6239 53.085 48.0769 51.3596 47.188C48.9337 46.0256 47.9258 44.8461 47.9258 42.8803C47.9258 40.6751 49.6513 38.8461 52.6408 38.8461C54.11 38.8461 55.135 39.0684 55.6988 39.3248C55.8354 39.4102 55.8696 39.547 55.8696 39.6666V42.0084C55.8696 42.1452 55.7842 42.2307 55.6133 42.1794C54.8616 41.7009 53.7512 41.4102 52.6408 41.4102ZM37.9491 43.4444C38.3421 43.4786 38.6496 43.4786 39.3329 43.4786C41.3317 43.4786 43.2109 42.7778 43.2109 40.0598C43.2109 37.8889 41.8613 36.7949 39.5892 36.7949C38.9059 36.7949 38.2567 36.829 37.9491 36.8461V43.4444ZM34.9084 34.3675C34.9084 34.2478 35.1476 34.1623 35.2842 34.1623C36.3776 34.111 38.0005 34.0769 39.6917 34.0769C44.4238 34.0769 46.2687 36.6751 46.2687 39.9914C46.2687 44.3333 43.1254 46.1965 39.2646 46.1965C38.6154 46.1965 38.3934 46.1623 37.9321 46.1623V52.7264C37.9321 52.8632 37.8808 52.9315 37.7271 52.9315H35.1134C34.9767 52.9315 34.9083 52.8803 34.9083 52.7264V34.3675H34.9084Z" fill="#31C5F0"/>
<defs>
<radialGradient id="paint0_radial" cx="0" cy="0" r="1" gradientUnits="userSpaceOnUse" gradientTransform="translate(39.186 35.0676) scale(28.12 27.2321)">
<stop stop-color="#34364E" stop-opacity="0.98"/>
<stop offset="1" stop-color="#0C0824"/>
</radialGradient>
</defs>
</svg>
