<svg width="90" height="90" viewBox="0 0 90 90" fill="none" xmlns="http://www.w3.org/2000/svg">
<rect x="0.5" y="0.5" width="89" height="89" rx="0.5" stroke="#4B869F"/>
<path d="M66.1388 59.1247C63.4724 59.0583 61.4059 59.3246 59.6727 60.0561C59.1728 60.2555 58.3728 60.2557 58.3061 60.8875C58.5729 61.1537 58.6062 61.586 58.8395 61.9518C59.2397 62.6167 59.9393 63.5149 60.5727 63.9806C61.2725 64.5126 61.9726 65.0447 62.7057 65.5103C64.0056 66.3086 65.4722 66.7741 66.7387 67.5723C67.4722 68.0376 68.2051 68.6366 68.9384 69.1355C69.3051 69.4013 69.5382 69.8338 70.005 70.0001V69.9003C69.7716 69.6009 69.7049 69.1686 69.4718 68.8361C69.1387 68.5035 68.8052 68.2041 68.4719 67.8715C67.5052 66.5746 66.3054 65.4438 65.0055 64.5126C63.9391 63.7809 61.6058 62.7832 61.1726 61.5526C61.1726 61.5526 61.1391 61.5195 61.1059 61.4863C61.8392 61.4197 62.7057 61.1537 63.4057 60.954C64.539 60.6546 65.5722 60.7212 66.7387 60.422C67.2719 60.2889 67.8053 60.1226 68.3385 59.9563V59.6571C67.7388 59.0583 67.3053 58.2603 66.672 57.6949C64.9723 56.2313 63.1057 54.8014 61.1726 53.6043C60.1392 52.9391 58.8061 52.5066 57.7062 51.9414C57.3064 51.7415 56.6396 51.642 56.4065 51.3094C55.8064 50.5777 55.4731 49.6134 55.0399 48.7486C54.0736 46.9192 53.14 44.8908 52.3068 42.9619C51.7071 41.6648 51.3404 40.3677 50.6071 39.1705C47.1742 33.5168 43.4412 30.0913 37.7084 26.7322C36.4752 26.0339 35.0088 25.7345 33.4423 25.3687C32.6093 25.3354 31.7758 25.269 30.9426 25.2356C30.4094 25.0028 29.876 24.371 29.4093 24.0716C27.5099 22.8742 22.6101 20.2804 21.2103 23.7059C20.3103 25.8676 22.5435 27.9959 23.31 29.0936C23.8768 29.8585 24.6099 30.7231 25.0099 31.5879C25.2433 32.1529 25.3098 32.7519 25.5431 33.3505C26.0765 34.8135 26.5762 36.4434 27.2763 37.8071C27.643 38.5054 28.0428 39.2371 28.5095 39.8688C28.7761 40.2346 29.2426 40.4011 29.3428 40.9997C28.8763 41.6648 28.8428 42.6625 28.576 43.494C27.3762 47.252 27.8429 51.908 29.5427 54.6683C30.0759 55.4995 31.3425 57.3291 33.0423 56.6306C34.5421 56.032 34.2088 54.1363 34.6421 52.4734C34.7422 52.0741 34.6755 51.8083 34.8754 51.5423C34.8756 51.5754 34.8754 51.6088 34.8754 51.6088C35.3421 52.54 35.8086 53.438 36.2418 54.3691C37.2752 55.9986 39.0749 57.6949 40.5747 58.8257C41.3749 59.4241 42.008 60.4552 43.0079 60.8211V60.7212H42.9412C42.7411 60.4218 42.4413 60.2889 42.1747 60.056C41.5748 59.4575 40.908 58.7257 40.4415 58.0606C39.0418 56.1981 37.8084 54.1363 36.7085 52.0077C36.1754 50.9769 35.7087 49.846 35.2754 48.8151C35.0753 48.4158 35.0753 47.8174 34.742 47.618C34.2421 48.3494 33.509 48.9814 33.1422 49.8794C32.5093 51.3094 32.4424 53.072 32.209 54.9012C32.0759 54.9346 32.1423 54.9012 32.0756 54.9677C31.0093 54.7015 30.6425 53.6043 30.2425 52.6729C29.2426 50.3117 29.076 46.5203 29.9427 43.7934C30.176 43.0948 31.1759 40.8999 30.7759 40.2348C30.576 39.6028 29.9092 39.2371 29.5427 38.7382C29.1094 38.1062 28.6427 37.3082 28.3429 36.6097C27.5429 34.7473 27.1429 32.6854 26.2764 30.8228C25.8764 29.958 25.1766 29.0602 24.6099 28.2622C23.9768 27.3642 23.2767 26.7322 22.7768 25.6679C22.6103 25.3022 22.3768 24.7036 22.6434 24.3045C22.7101 24.0384 22.8433 23.9387 23.1101 23.8722C23.5433 23.5062 24.7766 23.9719 25.2098 24.1713C26.443 24.67 27.4762 25.1359 28.5095 25.8342C28.976 26.1668 29.476 26.7988 30.0758 26.965H30.7759C31.8425 27.1977 33.0423 27.0316 34.0422 27.3308C35.8088 27.896 37.4084 28.7276 38.8417 29.6256C43.208 32.3859 46.8074 36.3105 49.2406 40.9997C49.6406 41.7643 49.8071 42.4631 50.1738 43.2611C50.8739 44.8908 51.7403 46.5537 52.4402 48.15C53.14 49.7129 53.8066 51.3094 54.8065 52.6066C55.3067 53.3047 57.3062 53.6706 58.2062 54.0366C58.8727 54.3358 59.9061 54.602 60.506 54.9677C61.6391 55.6658 62.7724 56.4643 63.839 57.2292C64.3724 57.6281 66.0386 58.4598 66.1388 59.1247L66.1388 59.1247Z" fill="#00546B"/>
<path d="M32.1418 30.2419C31.5752 30.2419 31.1754 30.3088 30.7754 30.4087C30.7754 30.4086 30.7754 30.4422 30.7754 30.4754H30.8421C31.1089 31.0086 31.5752 31.3754 31.9085 31.8419C32.1753 32.3751 32.4084 32.9085 32.6752 33.4419C32.7085 33.4084 32.7417 33.3752 32.7417 33.3752C33.2086 33.0417 33.4418 32.5085 33.4418 31.7087C33.2417 31.4753 33.2084 31.242 33.0418 31.0086C32.8419 30.6751 32.4084 30.5087 32.1418 30.2419Z" fill="#00546B"/>
</svg>
