<svg width="90" height="90" viewBox="0 0 90 90" fill="none" xmlns="http://www.w3.org/2000/svg">
<rect x="0.5" y="0.5" width="89" height="89" rx="0.5" stroke="#4B869F"/>
<path d="M25 59.8424C25 62.6912 27.3091 65 30.1576 65H59.8424C62.6912 65 65 62.6909 65 59.8424V30.1576C65 27.3088 62.6909 25 59.8424 25H30.1576C27.3088 25 25 27.3091 25 30.1576V59.8424Z" fill="#573D7A"/>
<path d="M41.5881 42.6935V37.0288H46.5743C47.0492 37.0288 47.5071 37.0684 47.9481 37.1476C48.389 37.2267 48.7791 37.368 49.1183 37.5716C49.4575 37.7751 49.7289 38.0577 49.9324 38.4196C50.1359 38.7814 50.2377 39.2449 50.2377 39.8103C50.2377 40.8279 49.9324 41.5628 49.3218 42.0151C48.7113 42.4673 47.9311 42.6935 46.9814 42.6935H41.5881ZM36.2627 32.8906V57.1094H47.999C49.0844 57.1094 50.1415 56.9737 51.1705 56.7023C52.1994 56.431 53.1152 56.0126 53.918 55.4473C54.7207 54.882 55.3596 54.1527 55.8344 53.2595C56.3093 52.3662 56.5467 51.3091 56.5467 50.088C56.5467 48.5729 56.1793 47.2783 55.4444 46.2042C54.7094 45.13 53.5957 44.3781 52.1033 43.9485C53.1887 43.4284 54.0084 42.7613 54.5624 41.9472C55.1165 41.1331 55.3935 40.1156 55.3935 38.8944C55.3935 37.7638 55.2069 36.814 54.8338 36.0452C54.4607 35.2763 53.9349 34.6601 53.2565 34.1965C52.5781 33.733 51.7641 33.3994 50.8143 33.1959C49.8645 32.9924 48.813 32.8906 47.6598 32.8906H36.2627ZM41.5881 52.9712V46.3229H47.3884C48.5417 46.3229 49.4688 46.5886 50.1698 47.12C50.8708 47.6514 51.2213 48.539 51.2213 49.7827C51.2213 50.4159 51.1139 50.936 50.8991 51.343C50.6843 51.75 50.396 52.0723 50.0341 52.3097C49.6723 52.5472 49.254 52.7168 48.7791 52.8185C48.3042 52.9203 47.8067 52.9712 47.2866 52.9712H41.5881Z" fill="#EBEBEB"/>
</svg>
