<svg width="90" height="90" viewBox="0 0 90 90" fill="none" xmlns="http://www.w3.org/2000/svg">
<rect x="0.5" y="0.5" width="89" height="89" rx="0.5" stroke="#4B869F"/>
<path d="M26.2981 29.0001C26.1111 28.9977 25.9258 29.0363 25.7552 29.1132C25.5846 29.1901 25.433 29.3034 25.3108 29.4453C25.1887 29.5871 25.0991 29.7539 25.0482 29.9341C24.9974 30.1143 24.9866 30.3035 25.0166 30.4883L30.457 63.5439C30.5248 63.9485 30.7328 64.3162 31.0445 64.5824C31.3563 64.8487 31.7518 64.9965 32.1615 64.9999H58.2615C58.5686 65.0038 58.867 64.8972 59.1022 64.6994C59.3374 64.5016 59.4938 64.2259 59.5429 63.9224L64.9835 30.4947C65.0134 30.3099 65.0026 30.1208 64.9517 29.9406C64.9008 29.7604 64.8112 29.5936 64.689 29.4518C64.5669 29.31 64.4152 29.1967 64.2447 29.1198C64.0741 29.043 63.8888 29.0044 63.7018 29.0068L26.2981 29.0001ZM49.2068 52.8908H40.8764L38.6207 41.0962H51.2254L49.2068 52.8908Z" fill="#2684FF"/>
<path d="M63.2204 41.0796H51.2024L49.1853 52.8648H40.8616L31.0332 64.541C31.3447 64.8106 31.7419 64.9605 32.1537 64.9639H58.2392C58.5461 64.9678 58.8443 64.8613 59.0794 64.6637C59.3144 64.4661 59.4707 64.1906 59.5198 63.8873L63.2204 41.0796Z" fill="url(#paint0_linear)"/>
<defs>
<linearGradient id="paint0_linear" x1="65.9992" y1="44.3799" x2="52.1002" y2="64.0977" gradientUnits="userSpaceOnUse">
<stop offset="0.18" stop-color="#0052CC"/>
<stop offset="1" stop-color="#2684FF"/>
</linearGradient>
</defs>
</svg>
