<svg width="90" height="90" viewBox="0 0 90 90" fill="none" xmlns="http://www.w3.org/2000/svg">
<rect x="0.5" y="0.5" width="89" height="89" rx="0.5" stroke="#4B869F"/>
<path fill-rule="evenodd" clip-rule="evenodd" d="M45 25C33.955 25 25 33.95 25 45C25 56.05 33.955 65 45 65C56.05 65 65 56.05 65 45C65 33.95 56.05 25 45 25ZM45 55.2575C39.605 55.2575 35.225 50.8825 35.225 45.4825C35.225 40.9775 38.275 37.1875 42.4175 36.0525V38.9025C39.785 39.925 37.925 42.5 37.925 45.5C37.925 49.4075 41.0925 52.575 45 52.575C48.9075 52.575 52.075 49.4075 52.075 45.5C52.075 42.5 50.215 39.9425 47.585 38.91V36.05C51.7275 37.1875 54.775 40.975 54.775 45.4825C54.775 50.8825 50.4 55.2575 45 55.2575ZM43.6 46.7175H46.4V32.785H43.6V46.7175Z" fill="#C5000B"/>
</svg>
