<svg width="90" height="90" viewBox="0 0 90 90" fill="none" xmlns="http://www.w3.org/2000/svg">
<rect x="0.5" y="0.5" width="89" height="89" rx="0.5" stroke="#4B869F"/>
<path d="M45.5 67.0001C44.8944 67.0001 44.3292 66.8384 43.8043 66.5554L38.4348 63.362C37.6273 62.9174 38.0311 62.7557 38.2733 62.6748C39.3634 62.311 39.5652 62.2302 40.6957 61.5834C40.8168 61.5026 40.9783 61.543 41.0994 61.6239L45.2174 64.0896C45.3789 64.1705 45.5807 64.1705 45.7019 64.0896L61.8106 54.752C61.972 54.6712 62.0528 54.5095 62.0528 54.3074V35.6725C62.0528 35.4704 61.972 35.3087 61.8106 35.2279L45.7019 25.9307C45.5404 25.8499 45.3385 25.8499 45.2174 25.9307L29.1087 35.2279C28.9472 35.3087 28.8665 35.5109 28.8665 35.6725V54.3074C28.8665 54.4691 28.9472 54.6712 29.1087 54.752L33.5093 57.2986C35.8913 58.5113 37.3851 57.0965 37.3851 55.6817V37.2894C37.3851 37.0469 37.587 36.8044 37.8696 36.8044H39.9286C40.1708 36.8044 40.413 37.0065 40.413 37.2894V55.6817C40.413 58.8751 38.677 60.7346 35.6491 60.7346C34.7205 60.7346 33.9938 60.7346 31.9348 59.724L27.6957 57.2986C26.646 56.6923 26 55.5605 26 54.3478V35.713C26 34.5003 26.646 33.3685 27.6957 32.7621L43.8043 23.4245C44.8137 22.8586 46.1863 22.8586 47.1957 23.4245L63.3043 32.7621C64.354 33.3685 65 34.5003 65 35.713V54.3478C65 55.5605 64.354 56.6923 63.3043 57.2986L47.1957 66.6363C46.6708 66.8788 46.0652 67.0001 45.5 67.0001ZM50.4658 54.1861C43.4006 54.1861 41.9472 50.9523 41.9472 48.2036C41.9472 47.961 42.1491 47.7185 42.4317 47.7185H44.5311C44.7733 47.7185 44.9752 47.8802 44.9752 48.1227C45.2981 50.2651 46.2267 51.3161 50.5062 51.3161C53.8975 51.3161 55.3509 50.5481 55.3509 48.729C55.3509 47.6781 54.9472 46.91 49.6584 46.3845C45.2578 45.9399 42.5124 44.9697 42.5124 41.453C42.5124 38.1787 45.2578 36.2385 49.8602 36.2385C55.028 36.2385 57.5714 38.0171 57.8944 41.8976C57.8944 42.0189 57.854 42.1402 57.7733 42.2614C57.6925 42.3423 57.5714 42.4231 57.4503 42.4231H55.3509C55.1491 42.4231 54.9472 42.2614 54.9068 42.0593C54.4224 39.8361 53.1708 39.1085 49.8602 39.1085C46.146 39.1085 45.7019 40.402 45.7019 41.3721C45.7019 42.5444 46.2267 42.9082 51.2329 43.555C56.1988 44.2017 58.5404 45.1314 58.5404 48.6078C58.5 52.165 55.5932 54.1861 50.4658 54.1861Z" fill="#539E43"/>
</svg>
