<svg width="32" height="32" viewBox="0 0 32 32" fill="none" xmlns="http://www.w3.org/2000/svg">
<rect width="32" height="32" rx="1" fill="#4B869F"/>
<path fill-rule="evenodd" clip-rule="evenodd" d="M4.53769 22.1941C4.50675 22.3465 4.50675 22.4685 4.50675 22.5904C4.50675 23.505 5.03271 24.2062 5.89899 24.2062H10.6945L11.6226 19.0236L6.36307 20.243C5.49679 20.4564 4.72332 21.2185 4.53769 22.1941ZM10.9413 13.2314H6.20765L5.31043 11.0974H11.3435C13.4163 11.0974 14.8395 12.5303 14.8395 14.4509C14.8395 14.6948 14.8086 14.9386 14.7776 15.1825L12.7976 26.3403H5.527C3.39224 26.3403 2 24.877 2 22.9564C2 20.7919 3.91819 18.6884 6.20765 18.1701L11.9932 16.8592L12.3644 14.9082C12.3644 14.8167 12.3954 14.7252 12.3954 14.6338C12.3954 13.8411 11.7766 13.2314 10.9413 13.2314ZM16.5106 26.34L20.316 5H22.7911L21.7083 11.0972H26.4728C28.5766 11.0972 29.9998 12.5605 29.9998 14.4811C29.9998 14.725 29.9689 14.9688 29.9379 15.2127L29.0098 20.4563C28.4219 23.7183 25.2971 26.34 21.9867 26.34H16.5106ZM26.4726 20.761L27.4936 14.9383C27.5245 14.8468 27.5245 14.7249 27.5245 14.6334C27.5245 13.8408 26.9057 13.231 26.0704 13.231H21.3059L19.3567 24.2059H22.3578C24.276 24.2059 26.1323 22.6511 26.4726 20.761Z" fill="white"/>
</svg>
