<svg width="19" height="12" viewBox="0 0 19 12" fill="none" xmlns="http://www.w3.org/2000/svg">
<path d="M7.02054 11.2164C7.50676 11.0888 7.94078 10.8926 8.31844 10.6249C8.69334 10.3597 8.99763 10.0158 9.22096 9.59172C9.44222 9.17289 9.55308 8.67471 9.55308 8.09626C9.55308 7.38256 9.38334 6.77375 9.03696 6.26499C8.69196 5.75968 8.17216 5.40433 7.46996 5.20262C7.98563 4.95859 8.37157 4.64464 8.63423 4.26168C8.89482 3.87827 9.025 3.39849 9.025 2.82418C9.025 2.29334 8.93783 1.84415 8.76395 1.48557C8.58593 1.12148 8.33707 0.832603 8.01944 0.615252C7.69674 0.398131 7.31448 0.239661 6.86713 0.14467C6.41679 0.0471502 5.92436 0 5.3788 0H0V11.4085H5.52968C6.04074 11.4085 6.54007 11.3443 7.02054 11.2164ZM2.51207 1.94328H4.86222C5.0844 1.94328 5.30129 1.95915 5.50829 1.99963C5.71897 2.03574 5.90044 2.1029 6.06121 2.19996C6.22313 2.29311 6.35147 2.42651 6.4483 2.59671C6.54191 2.76691 6.58837 2.98633 6.58837 3.25175C6.58837 3.72992 6.4483 4.07837 6.15942 4.28928C5.86755 4.50364 5.49886 4.60921 5.05404 4.60921H2.51207V1.94328ZM2.51207 9.46545V6.32387H5.24287C5.7836 6.32387 6.22313 6.4483 6.55272 6.69831C6.88185 6.95177 7.04722 7.36922 7.04722 7.95734C7.04722 8.25726 6.99869 8.50566 6.89703 8.69679C6.79606 8.88953 6.65691 9.04133 6.48878 9.15196C6.32088 9.26696 6.1217 9.34493 5.89699 9.39392C5.67573 9.44337 5.44044 9.46545 5.1925 9.46545H2.51207Z" fill="white"/>
<path d="M11.4295 10.4215C11.7988 10.8052 12.2379 11.0998 12.7635 11.3098C13.2892 11.5173 13.8748 11.6226 14.5255 11.6226C15.4591 11.6226 16.2604 11.4087 16.9175 10.9795C17.582 10.5522 18.0693 9.8424 18.3904 8.84788H16.3924C16.3149 9.10364 16.1148 9.34997 15.7861 9.5802C15.4545 9.81089 15.0589 9.92658 14.6012 9.92658C13.965 9.92658 13.4737 9.7596 13.134 9.42771C12.7931 9.09582 12.5723 8.47758 12.5723 7.82461H18.533C18.5758 7.18382 18.5238 6.57156 18.3752 5.98552C18.2255 5.39856 17.9861 4.87531 17.6494 4.41761C17.3126 3.95944 16.8839 3.59305 16.3611 3.32303C15.8365 3.0491 15.2242 2.91455 14.5255 2.91455C13.8925 2.91455 13.321 3.02702 12.8028 3.25081C12.2846 3.47506 11.8395 3.78234 11.4642 4.17196C11.0897 4.55929 10.8052 5.0209 10.5992 5.55611C10.3972 6.08948 10.2939 6.66632 10.2939 7.2841C10.2939 7.92282 10.3935 8.51231 10.5906 9.04499C10.7898 9.58043 11.0695 10.0361 11.4295 10.4215ZM12.6758 5.85028C12.7338 5.64397 12.8336 5.45123 12.9801 5.26838C13.1273 5.08852 13.3198 4.9358 13.5544 4.81321C13.7948 4.68878 14.0947 4.62783 14.4572 4.62783C15.0145 4.62783 15.4715 4.78929 15.7408 5.0876C16.0115 5.38844 16.2096 5.81601 16.2638 6.39469H12.5721C12.5827 6.23346 12.6174 6.05107 12.6758 5.85028Z" fill="white"/>
<path d="M12.1084 0.765381H16.7328V1.89123H12.1084V0.765381Z" fill="white"/>
</svg>
