<svg width="16" height="15" viewBox="0 0 16 15" fill="none" xmlns="http://www.w3.org/2000/svg">
<path d="M0 4.44434H3.55556V14.2221H0V4.44434Z" fill="white"/>
<path d="M1.74697 3.55556H1.76781C2.87011 3.55556 3.55556 2.76526 3.55556 1.77748C3.53471 0.76794 2.87011 0 1.78847 0C0.707016 0 0 0.76794 0 1.77748C0 2.76526 0.687087 3.55556 1.74697 3.55556Z" fill="white"/>
<path d="M9.42608 14.2221V8.88654C9.42608 8.60027 9.44813 8.31657 9.53244 8.11243C9.76423 7.54098 10.2903 6.95098 11.1756 6.95098C12.3347 6.95098 12.7976 7.82726 12.7976 9.11089V14.2219H16.0004V8.74359C16.0004 5.80937 14.4205 4.44434 12.3129 4.44434C10.6114 4.44434 9.85169 5.37298 9.42608 6.02233V6.05357H9.40514C9.4107 6.04328 9.41978 6.03281 9.42608 6.02233V4.66869H6.22266C6.26564 5.56481 6.22266 14.2219 6.22266 14.2219H9.42608V14.2221Z" fill="white"/>
</svg>
