<svg width="143" height="54" viewBox="0 0 143 54" fill="none" xmlns="http://www.w3.org/2000/svg">
<path fill-rule="evenodd" clip-rule="evenodd" d="M6.42009 43.5085C6.3418 43.8942 6.3418 44.2028 6.3418 44.5113C6.3418 46.8256 7.6727 48.5999 9.86478 48.5999H21.9995L24.3482 35.4856L11.0391 38.5713C8.84703 39.1113 6.88982 41.0399 6.42009 43.5085ZM22.6254 20.8286H10.6472L8.37687 15.4286H23.6431C28.8885 15.4286 32.4897 19.0543 32.4897 23.9143C32.4897 24.5314 32.4114 25.1486 32.3332 25.7657L27.3227 53.9999H8.92489C3.52298 53.9999 0 50.2971 0 45.4371C0 39.9599 4.85389 34.6371 10.6472 33.3257L25.2872 30.0085L26.2267 25.0714C26.2267 24.84 26.3049 24.6086 26.3049 24.3771C26.3049 22.3714 24.7392 20.8286 22.6254 20.8286ZM36.7171 53.9998L46.3465 0H52.6096L49.8695 15.4285H61.926C67.2496 15.4285 70.8509 19.1314 70.8509 23.9914C70.8509 24.6085 70.7726 25.2256 70.6943 25.8428L68.3456 39.1113C66.8581 47.3656 58.951 53.9998 50.5741 53.9998H36.7171ZM61.9263 39.8826L64.5098 25.1484C64.5881 24.9169 64.5881 24.6084 64.5881 24.3769C64.5881 22.3712 63.0223 20.8284 60.9085 20.8284H48.8521L43.9199 48.5997H51.5139C56.3678 48.5997 61.0651 44.6654 61.9263 39.8826ZM93.9476 5.39998C91.3641 5.39998 88.7806 7.71426 88.3109 10.4914L87.4497 15.4285H97.6272L93.9476 20.8285H86.4319L80.5603 53.9998H74.2972L82.0478 10.4914C83.0655 4.62856 88.7023 0 94.8871 0H124.935L121.18 5.39998H93.9476ZM120.094 53.9999L114.222 40.5C110.778 44.9742 107.02 49.6799 103.653 53.9999H96.6074L111.795 34.7143L103.497 15.4286H110.543L116.336 28.9286L135.954 0.0674243H143L118.841 34.7143L127.14 53.9999H120.094Z" fill="white"/>
</svg>
